<?xml version="1.0" standalone="yes"?>
<svg xmlns="http://www.w3.org/2000/svg" width="124" height="135">
<path style="fill:#010101; stroke:none;" d="M0 0L0 108L1 108C7.05731 93.9428 18.4128 66.8908 32 59.0887C38.045 55.6175 45.2953 56 52 56C52 38.1475 36.7458 1.99341 68 1L47 0L0 0z"/>
<path style="fill:#464646; stroke:none;" d="M49 32L55 32L54 35C59.4419 32.073 60.4932 24.6364 62 19L85 23L84 36C87.9175 33.2982 88.5159 29.3684 89.706 25C90.8845 20.6743 93.3424 14.4077 90.9715 10.108C83.1157 -4.13795 53.362 -2.61452 47.7847 13.0532C45.8114 18.5966 48.4415 26.3839 49 32z"/>
<path style="fill:#010101; stroke:none;" d="M76 0L76 1C81.0183 3.04398 89.4786 6.40445 91.3573 12.0154C92.6025 15.7346 90.681 20.4214 89.706 24C86.9153 34.2434 84.1268 52.2144 73 56C74.9507 62.1959 83.1202 62.9182 88 66.5177C98.4232 74.2065 118.772 87.5724 123 100L124 100L124 0L76 0z"/>
<path style="fill:#9e776f; stroke:none;" d="M62 19L62 20L65 21L62 19z"/>
<path style="fill:#f8bb9d; stroke:none;" d="M62 20L54 36L54 32C48.7553 32.6037 47.5767 35.0299 49 40L53 39C50.4838 52.5531 54.9989 69.5233 72 60L59 51C61.6169 52.3371 64.177 53.6958 67 54.5571C86.9181 60.6345 84 35.1679 84 23L62 20z"/>
<path style="fill:#9e776f; stroke:none;" d="M73.6667 20.3333L74.3333 20.6667L73.6667 20.3333M61 21L62 22L61 21M66.6667 21.3333L67.3333 21.6667L66.6667 21.3333M70.6667 21.3333L71.3333 21.6667L70.6667 21.3333M75 21L76 22L75 21M77 22L78 23L77 22M60.3333 23.6667L60.6667 24.3333L60.3333 23.6667M82 23L83 24L82 23M84 23L84 35L85 35L84 23M66.6667 24.3333L67.3333 24.6667L66.6667 24.3333M79.6667 24.3333L80.3333 24.6667L79.6667 24.3333z"/>
<path style="fill:#464646; stroke:none;" d="M64 25L64 26L69 26L64 25z"/>
<path style="fill:#9e776f; stroke:none;" d="M69 25L63 26L63 27L69 25z"/>
<path style="fill:#464646; stroke:none;" d="M78 25L78 26L82 26L78 25z"/>
<path style="fill:#9e776f; stroke:none;" d="M82 25L80 26L80 27L82 25M59.3333 27.6667L59.6667 28.3333L59.3333 27.6667M64 28L69 29L69 28L64 28z"/>
<path style="fill:#464646; stroke:none;" d="M65 28L65 29L68 29L65 28M68 29L69 30L68 29z"/>
<path style="fill:#9e776f; stroke:none;" d="M73 29L75 32L73 29M77 29L81 31L81 30L77 29z"/>
<path style="fill:#464646; stroke:none;" d="M79.6667 29.3333L80.3333 29.6667L79.6667 29.3333z"/>
<path style="fill:#9e776f; stroke:none;" d="M58.3333 30.6667L58.6667 31.3333L58.3333 30.6667z"/>
<path style="fill:#464646; stroke:none;" d="M81 30L82 31L81 30z"/>
<path style="fill:#9e776f; stroke:none;" d="M82 30L83 31L82 30M49 32L50 33L49 32M54.3333 32.6667L54.6667 33.3333L54.3333 32.6667z"/>
<path style="fill:#464646; stroke:none;" d="M74.3333 32.6667L74.6667 33.3333L74.3333 32.6667z"/>
<path style="fill:#9e776f; stroke:none;" d="M51 33L52 38L51 33M66 33L68 35L66 33z"/>
<path style="fill:#464646; stroke:none;" d="M65 34L65 36L67 36L67 34L65 34z"/>
<path style="fill:#9e776f; stroke:none;" d="M74 34L74 36L76 34L74 34M54 35L55 36L54 35z"/>
<path style="fill:#464646; stroke:none;" d="M75 35L75 38L76 38L75 35M78 35L78 37L80 37L80 35L78 35z"/>
<path style="fill:#9e776f; stroke:none;" d="M80.3333 35.6667L80.6667 36.3333L80.3333 35.6667M84 36L85 37L84 36M76 37L73 41L76 37M50 39L51 40L50 39M52 39L53 40L52 39z"/>
<path style="fill:#464646; stroke:none;" d="M50 40L51 43L52 43L53 40L50 40z"/>
<path style="fill:#010101; stroke:none;" d="M51 40L52 41L51 40z"/>
<path style="fill:#464646; stroke:none;" d="M69 41L70 42L69 41z"/>
<path style="fill:#9e776f; stroke:none;" d="M68 42L69 46L73 42L71 41L68 42z"/>
<path style="fill:#464646; stroke:none;" d="M71 42L72 43L71 42M68 43L69 44L68 43z"/>
<path style="fill:#9e776f; stroke:none;" d="M59 51L73 60C71.9973 54.2212 63.9977 52.7878 59 51z"/>
<path style="fill:#3b75ba; stroke:none;" d="M0 110L13 110L13 109L10 109C17.4184 102.726 26.0374 106.514 29 95L30 95L29 110L76 110L82 86L83 86L82 97L99 103L81 116L86 128C97.0488 124.978 124.349 116.238 123.721 102C123.421 95.187 117.641 91.1717 113 87.0502C102.305 77.5518 90.4435 63.7808 76 60.3511C70.6403 59.0784 66.4879 64.1048 61.0008 62.8086C57.2075 61.9126 55.1465 58.6529 51.8302 56.9884C46.7204 54.4237 38.0336 56.0386 33 58.1335C26.4159 60.8737 22.9593 67.0599 19.6944 73C13.2162 84.7864 3.73974 97.0432 0 110z"/>
<path style="fill:#9e776f; stroke:none;" d="M54 59L55 60L54 59M57 61L58 62L57 61M69 61L70 62L69 61M58.6667 62.3333L59.3333 62.6667L58.6667 62.3333M67 62L68 63L67 62M62.6667 63.3333L63.3333 63.6667L62.6667 63.3333z"/>
<path style="fill:#464646; stroke:none;" d="M34 76L35 77L34 76M33 79L33 83L34 83L33 79M80.3333 79.6667L80.6667 80.3333L80.3333 79.6667M81 82L81 85L82 85L81 82M32 84L30 95L31 95L32 84M82 86L76 109L77 109C81.1273 102.682 85.147 93.4996 82 86M29 95L26 105L27 105L29 95z"/>
<path style="fill:#010101; stroke:none;" d="M83 96L74.9066 108.972L61 110L28 110C25.3777 122.626 17.7476 112.985 11.74 110.585C8.32765 109.221 3.61718 110 0 110L0 135C20.3468 135 56.523 142.625 70 125L64 123L64 121C77.548 119.485 89.8324 114.1 99 103L83 96M27 99L24 105L27 99z"/>
<path style="fill:#f8bb9d; stroke:none;" d="M11 109C12.7941 110.752 14.1331 112.907 15.9884 114.602C29.8529 127.268 28.8551 98.0554 21 107L20 107L17 107C13.9629 105.141 12.6579 105.972 11 109z"/>
<path style="fill:#9e776f; stroke:none;" d="M16 105L16 107L18 105L16 105M20.3333 105.667L20.6667 106.333L20.3333 105.667M27 105L28 106L27 105M32 105L31 107L32 105z"/>
<path style="fill:#f8bb9d; stroke:none;" d="M31 108L35 105L31 108z"/>
<path style="fill:#010101; stroke:none;" d="M123 105C118.83 117.258 100.689 121.463 90 126.44C86.287 128.169 82.9985 132.091 79 132.933C73.653 134.059 70.4511 131.063 65 134L65 135L124 135L123 105z"/>
<path style="fill:#9e776f; stroke:none;" d="M35 106L36 107L35 106M17 107L17 113L18 113L17 107M24 107L24 113L25 113L24 107M28 107L28 110L29 110L28 107M10 108L11 109L10 108M21 108L21 111L22 111L21 108M31 108L31 109L35 109L31 108M20 112L20 116L21 116L20 112M80 117L81 118L80 117z"/>
<path style="fill:#f8bb9d; stroke:none;" d="M64 121L64 123L70 125L61 135C73.3636 133.384 90.739 134.689 81 118L64 121z"/>
</svg>
